<svg xmlns="http://www.w3.org/2000/svg" width="40.796" height="38.84" viewBox="0 0 40.796 38.84"><defs><style>.a{fill:#028094;}</style></defs><path class="a" d="M348.56,42.063l.054,0a.66.66,0,0,0,.091-.007,1.477,1.477,0,0,1,1.447,1.475.661.661,0,0,0,1.322,0,2.8,2.8,0,0,0-2.2-2.733v-.635a.661.661,0,0,0-1.322,0v.665a2.8,2.8,0,0,0,.723,5.5,1.477,1.477,0,1,1-1.477,1.477.661.661,0,0,0-1.322,0,2.8,2.8,0,0,0,2.075,2.7v.724a.661.661,0,0,0,1.322,0v-.694a2.8,2.8,0,0,0-.6-5.532,1.476,1.476,0,0,1-.116-2.947Zm0,0" transform="translate(-317.301 -36.273)"/><path class="a" d="M31.412.39A9.483,9.483,0,0,0,22.576,6.6H6.171a.691.691,0,0,0-.661.691L5.354,30.473H.678A.65.65,0,0,0,0,31.1v2.942a5.192,5.192,0,0,0,4.957,5.171v.015H25.364v-.019c.165.006.233.019.338.019h.014A5.192,5.192,0,0,0,30.9,34.039V19.163c.165.009.34.014.511.014a9.393,9.393,0,0,0,0-18.786ZM5.208,37.909h0a3.888,3.888,0,0,1-3.882-3.87V31.795H20.489v2.234A5.185,5.185,0,0,0,22.02,37.7c.069.069.156.123.228.206Zm24.369-3.87a3.87,3.87,0,0,1-3.862,3.87H25.7a3.9,3.9,0,0,1-3.891-3.879V31.1a.61.61,0,0,0-.631-.63H6.676L6.828,7.918H22.209a9.931,9.931,0,0,0-.181,1.836,9.32,9.32,0,0,0,.8,3.782H16.583a.661.661,0,1,0,0,1.322h6.96A9.327,9.327,0,0,0,29.577,19Zm1.835-16.184a8.062,8.062,0,1,1,8.062-8.062A8.062,8.062,0,0,1,31.412,17.855Zm0,0" transform="translate(0 -0.39)"/><path class="a" d="M125.877,212.746a2.049,2.049,0,1,0,2.116,2.048A2.085,2.085,0,0,0,125.877,212.746Zm0,2.775a.729.729,0,1,1,.794-.726A.763.763,0,0,1,125.877,215.521Zm0,0" transform="translate(-113.536 -195.201)"/><path class="a" d="M192.719,230.165a.661.661,0,0,0,.661.661h8.812a.661.661,0,1,0,0-1.322H193.38A.661.661,0,0,0,192.719,230.165Zm0,0" transform="translate(-176.797 -210.575)"/><path class="a" d="M125.877,143.2a2.05,2.05,0,1,0,2.116,2.049A2.085,2.085,0,0,0,125.877,143.2Zm0,2.775a.729.729,0,1,1,.794-.726.763.763,0,0,1-.794.726Zm0,0" transform="translate(-113.536 -131.404)"/><path class="a" d="M125.877,282.281a2.049,2.049,0,1,0,2.116,2.048A2.085,2.085,0,0,0,125.877,282.281Zm0,2.775a.729.729,0,1,1,.794-.726A.763.763,0,0,1,125.877,285.056Zm0,0" transform="translate(-113.536 -258.992)"/><path class="a" d="M202.192,299.5H193.38a.661.661,0,1,0,0,1.322h8.812a.661.661,0,1,0,0-1.322Zm0,0" transform="translate(-176.797 -274.792)"/></svg>