<svg xmlns="http://www.w3.org/2000/svg" width="34.448" height="38.84" viewBox="0 0 34.448 38.84"><defs><style>.a{fill:#ff4238;}</style></defs><g transform="translate(0)"><path class="a" d="M63.375,36.851,61.657,26.792A2.863,2.863,0,0,0,59.65,24.52l-4.634-1.4a5.169,5.169,0,0,0-3.587-4.489c.147-.163.283-.325.408-.484a9,9,0,0,0,1.842-4h.358a1.688,1.688,0,0,0,1.686-1.686V11.6a1.7,1.7,0,0,0-.874-1.475V8.045a.569.569,0,1,0-1.138,0v2.334a3.506,3.506,0,0,0-.756.219.572.572,0,0,0-.08.036c-.061.028-.122.057-.183.09V6.14a2.3,2.3,0,0,0-2.3-2.3h-1.57a2.36,2.36,0,0,0-1.49.531l-.154.126a1.589,1.589,0,0,1-2.011,0l-.154-.126a2.36,2.36,0,0,0-1.49-.531h-1.57a2.3,2.3,0,0,0-2.3,2.3v4.584c-.061-.033-.122-.062-.183-.09a.57.57,0,0,0-.08-.036,3.507,3.507,0,0,0-.756-.219v-5.9a3.344,3.344,0,0,1,3.34-3.34h8.39a3.344,3.344,0,0,1,3.34,3.34v.894a.569.569,0,1,0,1.138,0V4.478A4.483,4.483,0,0,0,50.371,0h-8.39A4.483,4.483,0,0,0,37.5,4.478v5.646a1.7,1.7,0,0,0-.874,1.475v.864a1.688,1.688,0,0,0,1.686,1.686h.358a8.995,8.995,0,0,0,1.842,4c.125.159.261.321.407.483a5.188,5.188,0,0,0-3.586,4.489L32.7,24.52a2.863,2.863,0,0,0-2.007,2.272L30,30.877a.569.569,0,0,0,1.121.191l.7-4.085a1.732,1.732,0,0,1,1.214-1.374l4.286-1.293v1.125a2.846,2.846,0,0,0-2.163,1.791,2.884,2.884,0,0,0-.169.772l-.414,5.317a1.446,1.446,0,0,0,1.441,1.558h.709a.569.569,0,1,0,0-1.138h-.709a.308.308,0,0,1-.307-.332l.414-5.317a1.746,1.746,0,0,1,.1-.468,1.72,1.72,0,0,1,1.61-1.1h.107a1.7,1.7,0,0,1,1.588,1.019,1.744,1.744,0,0,1,.133.546l.414,5.318a.308.308,0,0,1-.307.332h-.709a.569.569,0,1,0,0,1.138h.709a1.446,1.446,0,0,0,1.441-1.558L40.793,28a2.881,2.881,0,0,0-.22-.9,2.816,2.816,0,0,0-2.119-1.666V23.973l1.955-.59c.178.375.53,1.184,1.229,2.93.7,1.761,1.578,4.018,2.417,6.213a.577.577,0,0,0,.021.054c.56,1.465,1.1,2.9,1.567,4.137a.569.569,0,0,0,1.065,0c.464-1.238,1.007-2.673,1.567-4.137a.565.565,0,0,0,.021-.054c.838-2.193,1.713-4.449,2.416-6.209s1.052-2.558,1.23-2.933l1.955.59v3.359a2.943,2.943,0,1,0,1.138,0V24.316l4.287,1.293a1.732,1.732,0,0,1,1.214,1.374l1.718,10.059a.565.565,0,0,1-.557.66H30.654a.565.565,0,0,1-.557-.66l.567-3.32a.569.569,0,0,0-1.121-.191l-.567,3.32a1.7,1.7,0,0,0,1.678,1.989H61.7a1.7,1.7,0,0,0,1.678-1.989ZM53.718,11.537a2.441,2.441,0,0,1,.549-.074.581.581,0,0,0,.278-.066.539.539,0,0,1,.04.2v.864a.55.55,0,0,1-.549.549h-.318ZM38.634,13.012h-.318a.55.55,0,0,1-.549-.549V11.6a.54.54,0,0,1,.04-.2.58.58,0,0,0,.278.066,2.536,2.536,0,0,1,.549.074v1.474Zm1.138.638V12.156A.8.8,0,0,0,40.8,11.39V6.14a1.16,1.16,0,0,1,1.159-1.159h1.57a1.219,1.219,0,0,1,.77.275l.154.126a2.727,2.727,0,0,0,3.451,0l.154-.126a1.219,1.219,0,0,1,.77-.275H50.4A1.16,1.16,0,0,1,51.554,6.14v5.251a.8.8,0,0,0,1.026.766V13.65a7.356,7.356,0,0,1-1.638,3.8A7.5,7.5,0,0,1,49.579,18.8a.572.572,0,0,0-.051.038,5.544,5.544,0,0,1-6.7,0,.577.577,0,0,0-.051-.038,7.5,7.5,0,0,1-1.363-1.351A7.357,7.357,0,0,1,39.771,13.65ZM49.9,22.839l-3.726,2.785L42.45,22.839a2.7,2.7,0,0,0,.577-1.611v-.917a6.679,6.679,0,0,0,6.3,0v.917A2.7,2.7,0,0,0,49.9,22.839ZM41.5,22.2a1.555,1.555,0,0,0-.959-.048l-.041.011-1.965.593a4.041,4.041,0,0,1,3.353-3.187v1.656A1.5,1.5,0,0,1,41.5,22.2Zm1.544,4.566,0-.008-.085-.216-.015-.038-.082-.206-.006-.014-.244-.61-.017-.042-.066-.165L42.5,25.41l-.063-.156-.018-.045-.111-.272-.029-.072-.042-.1-.044-.108-.017-.041-.013-.031q-.1-.239-.187-.452v0l-.092-.219-.045-.107,3.2,2.4-1.339.569-.007,0-.559.238ZM44.4,30.253l-.339-.878q-.266-.687-.509-1.309l.212-.09.867,1.008Zm1.786,4.623a.566.566,0,0,0-.058-.1c-.257-.679-.583-1.539-.944-2.485l.531-2.907h.921l.531,2.907C46.789,33.286,46.449,34.182,46.187,34.875Zm.663-6.625H45.5l-.638-.741,1.311-.557,1.311.557Zm1.44,1.125-.339.878-.232-1.268.867-1.008.212.09Q48.555,28.689,48.289,29.375Zm2.179-5.466-.087.207-.012.028-.091.218-.006.015-.082.2-.015.037-.019.047-.038.092-.047.115-.015.038-.122.3-.019.048-.063.155-.025.061-.066.163-.019.047-.24.6-.008.021-.081.205-.015.039-.086.217,0,0-.095.24-.56-.238-.006,0-1.34-.569,3.2-2.4Zm1.383-1.742h0a1.554,1.554,0,0,0-1,.038,1.5,1.5,0,0,1-.388-.976V19.572a4.009,4.009,0,0,1,3.355,3.188Zm4.414,8.054a1.805,1.805,0,1,1-1.805-1.805A1.807,1.807,0,0,1,56.265,30.221Z" transform="translate(-28.952)"/></g></svg>