<svg xmlns="http://www.w3.org/2000/svg" width="39.849" height="39.849" viewBox="0 0 39.849 39.849"><defs><style>.a{fill:#7281ff;}</style></defs><path class="a" d="M16.664,55.849h38.52a.664.664,0,0,0,.664-.664V52.528a.664.664,0,0,0-.664-.664H54.52V50.536h.664a.664.664,0,0,0,.664-.664V47.215a.664.664,0,0,0-.664-.664H53.192V44.558a.664.664,0,0,0-.664-.664h-1.14a5.31,5.31,0,0,0-6.165-8.583V25.3a.664.664,0,0,0-.195-.47l-8.634-8.634a.664.664,0,0,0-.47-.195H16.664a.664.664,0,0,0-.664.664v38.52A.664.664,0,0,0,16.664,55.849Zm16.6-3.985V50.536h9.3v1.328ZM34.6,49.207V47.879h9.3v1.328Zm9.3,5.313H34.6V53.192h9.3Zm0-2.657V50.536h9.3v1.328ZM54.52,54.52h-9.3V53.192h9.3Zm0-6.641v1.328h-9.3V47.879Zm-2.657-2.657v1.328h-9.3V45.222Zm-3.985-9.3a3.985,3.985,0,1,1-3.985,3.985A3.985,3.985,0,0,1,47.879,35.924ZM36.589,18.267l6.366,6.366H36.589Zm-19.26-.939H35.26V25.3a.664.664,0,0,0,.664.664h7.97V36.4a5.3,5.3,0,0,0,.476,7.494H41.9a.664.664,0,0,0-.664.664v1.992H33.932a.664.664,0,0,0-.664.664v1.992H32.6a.664.664,0,0,0-.664.664v2.657a.664.664,0,0,0,.664.664h.664V54.52H17.328Z" transform="translate(-16 -16)"/><path class="a" d="M56.664,201.328H77.917a.664.664,0,0,0,0-1.328H56.664a.664.664,0,0,0,0,1.328Z" transform="translate(-52.679 -184.725)"/><path class="a" d="M56.664,241.328H77.917a.664.664,0,1,0,0-1.328H56.664a.664.664,0,0,0,0,1.328Z" transform="translate(-52.679 -221.404)"/><path class="a" d="M56.664,281.328H76.589a.664.664,0,1,0,0-1.328H56.664a.664.664,0,1,0,0,1.328Z" transform="translate(-52.679 -258.083)"/><path class="a" d="M77.253,320.664a.664.664,0,0,0-.664-.664H56.664a.664.664,0,0,0,0,1.328H76.589A.664.664,0,0,0,77.253,320.664Z" transform="translate(-52.679 -294.762)"/><path class="a" d="M65.962,360.664A.664.664,0,0,0,65.3,360H56.664a.664.664,0,1,0,0,1.328H65.3A.664.664,0,0,0,65.962,360.664Z" transform="translate(-52.679 -331.442)"/><path class="a" d="M56.664,73.3h11.29a.664.664,0,1,0,0-1.328H57.328v-.389l1.992-1.992.859.859a.664.664,0,0,0,.939,0l2.187-2.187.859.859a.664.664,0,0,0,.939,0l2.187-2.187v.389a.664.664,0,0,0,1.328,0V65.328a.664.664,0,0,0-.664-.664H65.962a.664.664,0,1,0,0,1.328h.389L64.634,67.71l-.859-.859a.664.664,0,0,0-.939,0l-2.187,2.187-.859-.859a.664.664,0,0,0-.939,0L57.328,69.7V64.664a.664.664,0,1,0-1.328,0v7.97A.664.664,0,0,0,56.664,73.3Z" transform="translate(-52.679 -60.015)"/><path class="a" d="M384,275.985a20441.021,20441.021,0,0,1,1.328,1.328.664.664,0,0,0,.664-.664v-.18a1.327,1.327,0,0,0-.664-2.477h.664a1.05,1.05,0,1,0-1.328-1.328v.18a1.327,1.327,0,0,0,.664,2.477h-.664A.664.664,0,0,0,384,275.985Z" transform="translate(-353.447 -250.747)"/></svg>