<svg xmlns="http://www.w3.org/2000/svg" width="31.124" height="38.84" viewBox="0 0 31.124 38.84"><defs><style>.a{fill:#217e68;}</style></defs><g transform="translate(0)"><path class="a" d="M79.9,19.727H65.946a1.711,1.711,0,0,1-.828-.214l-3.968-2.2a2.851,2.851,0,0,0-1.38-.357H56.363V2.086a.949.949,0,0,1,.948-.948H76.164a.949.949,0,0,1,.948.948V17.876a.569.569,0,1,0,1.138,0V2.086A2.088,2.088,0,0,0,76.164,0H57.311a2.089,2.089,0,0,0-2.086,2.086V16.955H52.946a2.089,2.089,0,0,0-2.086,2.086v4.74a.569.569,0,0,0,1.138,0v-4.74a.949.949,0,0,1,.948-.948H59.77a1.711,1.711,0,0,1,.828.214l3.968,2.2a2.852,2.852,0,0,0,1.38.357H79.9a.949.949,0,0,1,.948.948V36.754a.949.949,0,0,1-.948.948H52.946A.949.949,0,0,1,52,36.754V26.229a.569.569,0,0,0-1.138,0V36.754a2.089,2.089,0,0,0,2.086,2.086H79.9a2.088,2.088,0,0,0,2.086-2.086V21.813A2.088,2.088,0,0,0,79.9,19.727Z" transform="translate(-50.86)"/><path class="a" d="M224.082,170.1h-9.133a.569.569,0,0,0,0,1.138h9.133a.569.569,0,0,0,0-1.138Z" transform="translate(-201.975 -157.196)"/><path class="a" d="M224.082,198.8h-9.133a.569.569,0,0,0,0,1.138h9.133a.569.569,0,0,0,0-1.138Z" transform="translate(-201.975 -183.719)"/><path class="a" d="M174.317,170.1h-.728a.569.569,0,0,0,0,1.138h.728a.569.569,0,1,0,0-1.138Z" transform="translate(-163.753 -157.196)"/><path class="a" d="M174.317,198.8h-.728a.569.569,0,0,0,0,1.138h.728a.569.569,0,1,0,0-1.138Z" transform="translate(-163.753 -183.719)"/><path class="a" d="M235.679,31.329a2.189,2.189,0,1,0-2.189,2.189A2.192,2.192,0,0,0,235.679,31.329Zm-3.241,0a1.051,1.051,0,1,1,1.051,1.051A1.053,1.053,0,0,1,232.438,31.329Z" transform="translate(-217.612 -26.929)"/><path class="a" d="M217.66,100.367v.843a1.31,1.31,0,0,0,1.309,1.309H222.8a1.31,1.31,0,0,0,1.309-1.309v-.843A2.11,2.11,0,0,0,222,98.26h-2.233A2.11,2.11,0,0,0,217.66,100.367Zm1.138,0a.971.971,0,0,1,.969-.969H222a.971.971,0,0,1,.969.969v.843a.171.171,0,0,1-.171.171h-3.831a.171.171,0,0,1-.171-.171v-.843Z" transform="translate(-205.007 -90.806)"/><path class="a" d="M213.485,343.6h.414a1.335,1.335,0,0,0,1.334-1.334v-.6h.6a1.335,1.335,0,0,0,1.334-1.334v-.414a1.335,1.335,0,0,0-1.334-1.334h-.6v-.6a1.335,1.335,0,0,0-1.334-1.334h-.414a1.335,1.335,0,0,0-1.334,1.334v.6h-.6a1.335,1.335,0,0,0-1.334,1.334v.414a1.335,1.335,0,0,0,1.334,1.334h.6v.6A1.335,1.335,0,0,0,213.485,343.6Zm-1.932-3.07a.2.2,0,0,1-.2-.2v-.414a.2.2,0,0,1,.2-.2h.867a.87.87,0,0,0,.869-.869v-.867a.2.2,0,0,1,.2-.2h.414a.2.2,0,0,1,.2.2v.867a.87.87,0,0,0,.869.869h.868a.2.2,0,0,1,.2.2v.414a.2.2,0,0,1-.2.2h-.868a.87.87,0,0,0-.869.869v.867a.2.2,0,0,1-.2.2h-.414a.2.2,0,0,1-.2-.2V341.4a.87.87,0,0,0-.869-.869Z" transform="translate(-198.13 -311.114)"/><path class="a" d="M186.163,304.835a5.928,5.928,0,1,0,1.949,1.336.569.569,0,1,0-.817.792,4.769,4.769,0,1,1-1.575-1.08.569.569,0,0,0,.443-1.048Z" transform="translate(-168.296 -281.28)"/></g></svg>