<svg xmlns="http://www.w3.org/2000/svg" width="38.843" height="38.84" viewBox="0 0 38.843 38.84"><defs><style>.a{fill:#2d75d2;}</style></defs><path class="a" d="M140.489,18.59h-1.295v-.647a1.942,1.942,0,0,0-3.885,0v.647h-2.59v-.647a1.942,1.942,0,1,0-3.885,0v.647h-2.59v-.647a1.942,1.942,0,1,0-3.885,0v.647h-2.59v-.647a1.942,1.942,0,0,0-3.885,0v.647H114.59A2.593,2.593,0,0,0,112,21.18V32.834h1.295V27.007h28.489V38.661H137.9a2.593,2.593,0,0,0-2.59,2.59v3.885h-9.065v1.295h14.244a2.573,2.573,0,0,0,1.295-.348v.348a1.3,1.3,0,0,1-1.295,1.295H125.6v1.295h14.892a2.573,2.573,0,0,0,1.295-.348v.348a1.3,1.3,0,0,1-1.295,1.295H124.3v1.295h16.187a2.593,2.593,0,0,0,2.59-2.59V21.18A2.593,2.593,0,0,0,140.489,18.59Zm-3.885-.647a.647.647,0,0,1,1.295,0v2.59a.647.647,0,0,1-1.295,0Zm-6.475,0a.647.647,0,1,1,1.295,0v2.59a.647.647,0,1,1-1.295,0Zm-6.475,0a.647.647,0,1,1,1.295,0v2.59a.647.647,0,1,1-1.295,0Zm-6.475,0a.647.647,0,1,1,1.295,0v2.59a.647.647,0,1,1-1.295,0Zm-3.885,7.77V21.18a1.3,1.3,0,0,1,1.295-1.295h1.295v.647a1.942,1.942,0,0,0,3.885,0v-.647h2.59v.647a1.942,1.942,0,1,0,3.885,0v-.647h2.59v.647a1.942,1.942,0,1,0,3.885,0v-.647h2.59v.647a1.942,1.942,0,0,0,3.885,0v-.647h1.295a1.3,1.3,0,0,1,1.295,1.295v4.532ZM136.6,41.251a1.3,1.3,0,0,1,1.295-1.295h2.969L136.6,44.221Zm3.885,3.885h-2.969l4.264-4.264v2.969a1.3,1.3,0,0,1-1.295,1.295Z" transform="translate(-104.235 -16)"/><path class="a" d="M36.113,246.7l1.867-3.138a.647.647,0,0,0-.683-.966l-3.33.664a10.36,10.36,0,0,0-13.767-1.2l.778,1.035A9.065,9.065,0,0,1,33.245,244.4a.647.647,0,0,0,.614.209l2.263-.451-1.286,2.161a.647.647,0,0,0-.042.579,9.066,9.066,0,1,1-15.027-2.7l-.949-.881A10.357,10.357,0,1,0,36.113,246.7Z" transform="translate(-16.062 -221.867)"/><path class="a" d="M64.647,297.065h3.237V300.3a.647.647,0,0,0,.648.647h3.885a.647.647,0,0,0,.647-.647v-3.237H76.3a.648.648,0,0,0,.647-.647v-3.885a.648.648,0,0,0-.647-.647H73.065v-3.237a.647.647,0,0,0-.647-.647H68.532a.647.647,0,0,0-.648.647v3.237H64.647a.648.648,0,0,0-.647.647v3.885A.648.648,0,0,0,64.647,297.065Zm.647-3.885h3.237a.648.648,0,0,0,.647-.647v-3.237h2.59v3.237a.648.648,0,0,0,.647.647h3.237v2.59H72.417a.647.647,0,0,0-.647.647v3.237H69.18v-3.237a.647.647,0,0,0-.647-.647H65.295Z" transform="translate(-60.12 -265.986)"/><path class="a" d="M232,184h1.295v1.295H232Z" transform="translate(-214.523 -170.403)"/><path class="a" d="M168,184h1.295v1.295H168Z" transform="translate(-155.703 -170.403)"/><path class="a" d="M360,184h1.295v1.295H360Z" transform="translate(-332.164 -170.403)"/><path class="a" d="M424,184h1.295v1.295H424Z" transform="translate(-390.984 -170.403)"/><path class="a" d="M296,184h1.295v1.295H296Z" transform="translate(-273.344 -170.403)"/><path class="a" d="M232,248h1.295v1.3H232Z" transform="translate(-214.523 -229.223)"/><path class="a" d="M360,248h1.295v1.3H360Z" transform="translate(-332.164 -229.223)"/><path class="a" d="M424,248h1.295v1.3H424Z" transform="translate(-390.984 -229.223)"/><path class="a" d="M296,248h1.295v1.3H296Z" transform="translate(-273.344 -229.223)"/><path class="a" d="M360,312h1.295V313.3H360Z" transform="translate(-332.164 -288.044)"/><path class="a" d="M296,312h1.295V313.3H296Z" transform="translate(-273.344 -288.044)"/></svg>