<svg xmlns="http://www.w3.org/2000/svg" width="25" height="21" viewBox="0 0 25 21"><defs><style>.a{fill:#c5c3c3;}</style></defs><g transform="translate(-0.471 0.425)"><path class="a" d="M12.488,21C7.326,21,2.686,17.213.073,10.869a1,1,0,0,1,0-.75C2.682,3.782,7.323,0,12.488,0H12.5a11.293,11.293,0,0,1,7.171,2.685,18.635,18.635,0,0,1,5.256,7.434,1,1,0,0,1,0,.75C22.314,17.213,17.669,21,12.5,21ZM7.622,10.5A4.987,4.987,0,0,0,12.5,15.578,4.981,4.981,0,0,0,17.366,10.5,4.987,4.987,0,0,0,12.5,5.409,4.993,4.993,0,0,0,7.622,10.5Zm1.83,0a3.422,3.422,0,0,1,.062-.624h.061a2.555,2.555,0,0,0,2.5-2.521,2.371,2.371,0,0,1,.426-.038A3.117,3.117,0,0,1,15.539,10.5,3.113,3.113,0,0,1,12.5,13.666,3.115,3.115,0,0,1,9.452,10.5Z" transform="translate(0.471 -0.425)"/></g></svg>