<svg xmlns="http://www.w3.org/2000/svg" width="40" height="41" viewBox="0 0 40 41"><defs><style>.a{fill:#217e5e;opacity:0.22;}.b{fill:#217e68;}</style></defs><g transform="translate(-140.293 -377)"><rect class="a" width="40" height="41" rx="6" transform="translate(140.293 377)"/><g transform="translate(151.182 384.378)"><path class="b" d="M187.281,340.3a.49.49,0,0,0,.419,0,3.2,3.2,0,0,0,2.049-2.657,3.2,3.2,0,0,0-4.521,0,3.221,3.221,0,0,0,2.054,2.653Zm-.254-2.924a.558.558,0,0,0,.474.26.55.55,0,0,0,.445-.259.547.547,0,0,1,1.024.266,1.527,1.527,0,1,1-2.966,0A.548.548,0,0,1,187.027,337.38Zm0,0" transform="translate(-175.624 -318.886)"/><path class="b" d="M182.555,378.233a.389.389,0,0,0,.389.389h7.046a.994.994,0,0,0,.993-.992v-5.912a.389.389,0,0,0-.778,0v1.874h-2.026a.993.993,0,0,0-.992.993v3.26h-4.243a.389.389,0,0,0-.389.389Zm5.409-3.649a.215.215,0,0,1,.215-.215H190.2v3.26a.215.215,0,0,1-.215.215h-2.026Zm0,0" transform="translate(-173.09 -352.077)"/><path class="b" d="M17.892,17.452a3.471,3.471,0,0,0-2.052-3.169l-.007,0-4.649-1.8v-1.09a3.643,3.643,0,0,0,1.381-2.41,1.737,1.737,0,0,0,1.56-1.641,1.548,1.548,0,0,0-.4-1.029V4.819a4.819,4.819,0,1,0-9.638,0V6.343a1.49,1.49,0,0,0-.4,1,1.737,1.737,0,0,0,1.56,1.641A3.6,3.6,0,0,0,6.7,11.446v1.033l-4.651,1.8A3.47,3.47,0,0,0,0,17.452v8.1a.994.994,0,0,0,.993.992H8.039a.389.389,0,1,0,0-.778H3.8v-3.26a.994.994,0,0,0-.993-.993H.777V17.452A2.694,2.694,0,0,1,2.345,15L5.58,13.749a3.76,3.76,0,0,0,3.364,1.745,3.759,3.759,0,0,0,3.364-1.745L15.546,15a2.715,2.715,0,0,1,1.568,2.449v.374a.389.389,0,1,0,.778,0v-.374ZM.777,22.292H2.8a.215.215,0,0,1,.215.215v3.26H.992a.215.215,0,0,1-.215-.215ZM13.347,7.338a.945.945,0,0,1-.752.844V6.5A.94.94,0,0,1,13.347,7.338Zm-8.133.844a.945.945,0,0,1-.752-.844.98.98,0,0,1,.752-.819ZM5.23,5.715a2.033,2.033,0,0,0-.367.1v-1a4.041,4.041,0,1,1,8.083,0v.97a2,2,0,0,0-.351-.087.936.936,0,0,0-.016-.23c-.051-.2-.259-.388-1.173-1.369a.693.693,0,0,0-.919-.146,7.5,7.5,0,0,1-4.532,1.22.691.691,0,0,0-.725.539Zm.761,2.8V5.958a8.3,8.3,0,0,0,4.86-1.311c.559.6.868.922.966,1.042V8.512a2.87,2.87,0,0,1-2.862,2.866H8.948A2.885,2.885,0,0,1,5.991,8.512Zm4.415,3.34V12.6a1.992,1.992,0,0,1-2.925,0v-.723a3.975,3.975,0,0,0,1.47.279,3.652,3.652,0,0,0,1.454-.3ZM6.821,14.058a1.6,1.6,0,0,1-.513-.592l.676-.262a2.772,2.772,0,0,0,3.921,0l.676.262c-.556,1.1-2.934,1.854-4.759.592Zm0,0" transform="translate(0 0)"/></g></g></svg>