<svg xmlns="http://www.w3.org/2000/svg" width="42" height="44" viewBox="0 0 42 44"><defs><style>.a,.b{fill:#f14316;}.a{opacity:0.22;}</style></defs><g transform="translate(-37 -561)"><rect class="a" width="42" height="44" rx="6" transform="translate(37 561)"/><g transform="translate(42 569)"><g transform="translate(9.049 2.006)"><g transform="translate(0 0)"><path class="b" d="M150.858,52.2h-8.246a.509.509,0,0,0,0,1.019h8.246a.509.509,0,0,0,0-1.019Z" transform="translate(-142.102 -52.201)"/></g></g><g transform="translate(19.804 0)"><path class="b" d="M311.511,20.7a.511.511,0,0,0-.509.509v3.967a.509.509,0,1,0,1.019,0V21.21A.511.511,0,0,0,311.511,20.7Z" transform="translate(-311.002 -20.701)"/></g><g transform="translate(6.623 0)"><path class="b" d="M104.511,20.7a.511.511,0,0,0-.509.509v3.967a.509.509,0,1,0,1.019,0V21.21A.511.511,0,0,0,104.511,20.7Z" transform="translate(-104.002 -20.701)"/></g><g transform="translate(3.286 8.246)"><path class="b" d="M71.96,150.2H52.111a.509.509,0,0,0,0,1.019H71.954a.509.509,0,1,0,.006-1.019Z" transform="translate(-51.602 -150.201)"/></g><g transform="translate(3.286 12.258)"><path class="b" d="M67.324,213.2H52.111a.509.509,0,1,0,0,1.019H67.324a.509.509,0,1,0,0-1.019Z" transform="translate(-51.602 -213.201)"/></g><g transform="translate(3.286 16.206)"><path class="b" d="M60.708,275.2h-8.6a.509.509,0,0,0,0,1.019h8.6a.509.509,0,1,0,0-1.019Z" transform="translate(-51.602 -275.201)"/></g><g transform="translate(0 2.006)"><g transform="translate(0 0)"><path class="b" d="M30.33,68.736a6.816,6.816,0,0,0-2.885-2.885V52.683a.477.477,0,0,0-.471-.484H22.319a.509.509,0,1,0,0,1.019h4.107v12.2a6.565,6.565,0,0,0-2.133-.344,6.785,6.785,0,0,0-6.788,6.782,6.5,6.5,0,0,0,.35,2.12H1.019V53.218H4.457a.509.509,0,1,0,0-1.019H.49a.475.475,0,0,0-.49.452V74.512A.47.47,0,0,0,.458,75h17.83a6.786,6.786,0,1,0,12.042-6.26ZM24.3,77.645a5.776,5.776,0,1,1,5.776-5.776A5.775,5.775,0,0,1,24.3,77.645Z" transform="translate(0 -52.199)"/></g></g><g transform="translate(23.815 17.524)"><path class="b" d="M377.541,299.868h-2.528V296.41a.509.509,0,0,0-1.019,0v3.967a.481.481,0,0,0,.471.5h3.076a.511.511,0,0,0,.509-.509A.505.505,0,0,0,377.541,299.868Z" transform="translate(-373.993 -295.901)"/></g></g></g></svg>