<svg xmlns="http://www.w3.org/2000/svg" width="40" height="41" viewBox="0 0 40 41"><defs><style>.a,.b{fill:#028094;}.a{opacity:0.22;}</style></defs><g transform="translate(-37 -475)"><rect class="a" width="40" height="41" rx="6" transform="translate(37 475)"/><g transform="translate(44 482)"><path class="b" d="M5.257,6H8.131V5.147a1.306,1.306,0,0,1,2.611,0V6h2.872V5.147a1.306,1.306,0,0,1,2.611,0V6H19.1V5.157a1.306,1.306,0,0,1,2.612,0V6h.432a2.216,2.216,0,0,1,2.213,2.212v4.109a.395.395,0,1,1-.79,0V11.186H13.072a.394.394,0,1,1,0-.788H23.567V8.214a1.428,1.428,0,0,0-1.424-1.423h-.432v.844a1.306,1.306,0,0,1-2.612,0V6.791H16.226v.833a1.306,1.306,0,0,1-2.611,0V6.791H10.742v.833a1.306,1.306,0,0,1-2.611,0V6.791H5.257v.833a1.306,1.306,0,0,1-2.611,0V6.791H2.212A1.43,1.43,0,0,0,.788,8.214V10.4h10.5a.394.394,0,1,1,0,.788H.789V22.832a.394.394,0,0,1-.788,0V8.214A2.216,2.216,0,0,1,2.212,6h.434V5.147a1.306,1.306,0,0,1,2.611,0ZM20.973,21.331a.394.394,0,0,1,.788,0V24.8a.388.388,0,0,1-.112.274l-2.41,2.835a.393.393,0,0,1-.6-.508l2.334-2.744Zm-2.4-.386a.394.394,0,1,1-.462-.638,5.557,5.557,0,0,1,5.46-.605V14.109a.4.4,0,0,1,.79,0v6.011a5.594,5.594,0,0,1,.939.756,5.555,5.555,0,1,1-8.823,6.557H2.051A2.053,2.053,0,0,1,0,25.384v-.766a.394.394,0,0,1,.788,0v.766a1.267,1.267,0,0,0,1.263,1.261H16.125a5.551,5.551,0,0,1,.648-4.962.393.393,0,1,1,.65.443A4.71,4.71,0,0,0,16.6,24.8a4.773,4.773,0,1,0,1.968-3.859ZM16.843,12.86H21.5a.394.394,0,0,1,.4.393V17.91a.4.4,0,0,1-.4.395H16.843a.4.4,0,0,1-.4-.395V13.254A.394.394,0,0,1,16.843,12.86Zm4.263.788H17.238v3.868h3.868ZM9.849,19.526h4.656a.4.4,0,0,1,.4.4v4.656a.4.4,0,0,1-.4.395H9.849a.394.394,0,0,1-.393-.395V19.921a.394.394,0,0,1,.393-.4Zm4.263.79H10.245v3.868h3.868ZM9.849,12.86h4.656a.393.393,0,0,1,.4.393V17.91a.394.394,0,0,1-.4.395H9.849a.393.393,0,0,1-.393-.395V13.254A.393.393,0,0,1,9.849,12.86Zm4.263.788H10.245v3.868h3.868ZM2.856,19.526H7.514a.394.394,0,0,1,.394.4v4.656a.394.394,0,0,1-.394.395H2.856a.394.394,0,0,1-.393-.395V19.921a.394.394,0,0,1,.393-.4Zm4.263.79H3.251v3.868H7.119ZM2.856,12.86H7.514a.393.393,0,0,1,.394.393V17.91a.393.393,0,0,1-.394.395H2.856a.393.393,0,0,1-.393-.395V13.254A.393.393,0,0,1,2.856,12.86Zm4.263.788H3.251v3.868H7.119ZM20.406,4.641a.519.519,0,0,0-.517.516V7.635a.516.516,0,0,0,1.033,0V5.157a.519.519,0,0,0-.516-.516Zm-16.089.14a.517.517,0,0,0-.882.365V7.624a.517.517,0,0,0,1.034,0V5.147A.516.516,0,0,0,4.317,4.782Zm5.12-.152a.519.519,0,0,0-.517.517V7.624a.516.516,0,0,0,1.033,0V5.147a.519.519,0,0,0-.516-.517Zm5.484,0a.519.519,0,0,0-.517.517V7.624a.517.517,0,0,0,1.034,0V5.147a.519.519,0,0,0-.517-.517Z" transform="translate(0 -3.841)"/></g></g></svg>