<svg xmlns="http://www.w3.org/2000/svg" width="42" height="44" viewBox="0 0 42 44"><defs><style>.a,.b{fill:#1328e3;}.a{opacity:0.22;}</style></defs><g transform="translate(-36 -646)"><rect class="a" width="42" height="44" rx="6" transform="translate(36 646)"/><g transform="translate(47 654)"><path class="b" d="M92.077,0H75.439a1.718,1.718,0,0,0-1.716,1.716V26.743a1.718,1.718,0,0,0,1.716,1.716h13.6a.6.6,0,0,0,.422-.175l4.16-4.16a.6.6,0,0,0,.175-.422V1.716A1.718,1.718,0,0,0,92.077,0ZM89.633,26.419v-1.6a.522.522,0,0,1,.521-.521h1.6ZM75.439,1.195H92.077a.522.522,0,0,1,.521.521V3.562H74.918V1.716A.522.522,0,0,1,75.439,1.195Zm-.521,25.548V4.757H92.6V23.1H90.154a1.718,1.718,0,0,0-1.716,1.716v2.444h-13A.522.522,0,0,1,74.918,26.743Z" transform="translate(-73.723 0)"/><path class="b" d="M128.049,141.556h7.823a.6.6,0,0,0,0-1.195h-7.823a.6.6,0,1,0,0,1.195Z" transform="translate(-124.395 -132.375)"/><path class="b" d="M307.549,141.556h2.02a.6.6,0,1,0,0-1.195h-2.02a.6.6,0,0,0,0,1.195Z" transform="translate(-293.683 -132.375)"/><path class="b" d="M128.049,224.931h7.823a.6.6,0,0,0,0-1.195h-7.823a.6.6,0,0,0,0,1.195Z" transform="translate(-124.395 -211.007)"/><path class="b" d="M307.549,224.931h2.02a.6.6,0,0,0,0-1.195h-2.02a.6.6,0,0,0,0,1.195Z" transform="translate(-293.683 -211.007)"/><path class="b" d="M136.47,307.708a.6.6,0,0,0-.6-.6h-7.823a.6.6,0,0,0,0,1.195h7.823A.6.6,0,0,0,136.47,307.708Z" transform="translate(-124.395 -289.638)"/><path class="b" d="M307.549,308.306h2.02a.6.6,0,0,0,0-1.195h-2.02a.6.6,0,0,0,0,1.195Z" transform="translate(-293.683 -289.638)"/><path class="b" d="M248.739,368.306a.6.6,0,1,0,0-1.195h-5.689a.6.6,0,1,0,0,1.195Z" transform="translate(-232.852 -346.225)"/></g></g></svg>