<svg xmlns="http://www.w3.org/2000/svg" width="40" height="41" viewBox="0 0 40 41"><defs><style>.a{fill:rgba(255,66,56,0.22);}.b{fill:#ff4238;}</style></defs><g transform="translate(-37 -307)"><rect class="a" width="40" height="41" rx="6" transform="translate(37 307)"/><g transform="translate(44 314)"><path class="b" d="M50.569,17.186a4.595,4.595,0,1,0-4.595-4.595A4.595,4.595,0,0,0,50.569,17.186Zm-2.493-1.64a1.457,1.457,0,0,1,1.454-1.4h2.079a1.457,1.457,0,0,1,1.453,1.4,3.854,3.854,0,0,1-4.986,0Zm2.493-6.823a3.861,3.861,0,0,1,3.1,6.172,2.185,2.185,0,0,0-2.061-1.471H49.529A2.185,2.185,0,0,0,47.468,14.9a3.862,3.862,0,0,1,3.1-6.172Z" transform="translate(-36.44 -6.339)"/><path class="b" d="M62.644,18.616a1.437,1.437,0,0,0,1.435-1.435v-.422a1.435,1.435,0,1,0-2.87,0v.422A1.437,1.437,0,0,0,62.644,18.616Zm-.709-1.858a.709.709,0,1,1,1.418,0v.422a.709.709,0,0,1-1.418,0Z" transform="translate(-48.515 -12.146)"/><path class="b" d="M11.216,108.5H9.192a1.192,1.192,0,1,0,0,2.385h2.024a1.192,1.192,0,1,0,0-2.385Zm0,1.659H9.192a.467.467,0,0,1,0-.933h2.024a.467.467,0,0,1,0,.933Z" transform="translate(-6.341 -85.999)"/><path class="b" d="M11.216,90.809H9.192a1.192,1.192,0,1,0,0,2.385h2.024a1.192,1.192,0,1,0,0-2.385Zm0,1.659H9.192a.467.467,0,1,1,0-.933h2.024a.467.467,0,1,1,0,.933Z" transform="translate(-6.341 -71.977)"/><path class="b" d="M11.216,73.119H9.192a1.192,1.192,0,1,0,0,2.385h2.024a1.192,1.192,0,1,0,0-2.385Zm0,1.659H9.192a.467.467,0,0,1,0-.933h2.024a.467.467,0,1,1,0,.933Z" transform="translate(-6.341 -57.956)"/><path class="b" d="M42.121,58.226H52.333a.363.363,0,0,0,0-.726H42.121a.363.363,0,0,0,0,.726Z" transform="translate(-33.098 -45.576)"/><path class="b" d="M12.046,8H8.363a.363.363,0,0,0,0,.726h3.683a.363.363,0,1,0,0-.726Z" transform="translate(-6.341 -6.341)"/><path class="b" d="M12.046,16.438H8.363a.363.363,0,0,0,0,.726h3.683a.363.363,0,1,0,0-.726Z" transform="translate(-6.341 -13.029)"/><path class="b" d="M12.046,24.878H8.363a.363.363,0,0,0,0,.726h3.683a.363.363,0,1,0,0-.726Z" transform="translate(-6.341 -19.719)"/><path class="b" d="M12.046,33.318H8.363a.363.363,0,1,0,0,.726h3.683a.363.363,0,1,0,0-.726Z" transform="translate(-6.341 -26.408)"/><path class="b" d="M21.257,13.084V.362A.363.363,0,0,0,20.894,0H.363A.363.363,0,0,0,0,.362V26.181a.363.363,0,0,0,.363.364H19.727a6.817,6.817,0,0,0,1.529-13.46ZM.726.726H7V25.819H.726Zm7,25.093V.726h12.8V12.958a6.853,6.853,0,0,0-.8-.049,6.774,6.774,0,0,0-3.437.933H9.023a.363.363,0,0,0,0,.726h6.254a6.878,6.878,0,0,0-1.09,1.192H9.023a.363.363,0,1,0,0,.726h4.708a6.781,6.781,0,0,0-.506,1.192h-1.6a.363.363,0,1,0,0,.726H13.04a6.8,6.8,0,0,0,.363,3.862H11.963a.363.363,0,1,0,0,.726h1.781a6.854,6.854,0,0,0,.809,1.166H13.344a.363.363,0,0,0,0,.726H15.2a.365.365,0,0,0,.068-.007,6.84,6.84,0,0,0,1.4.94Zm12,0a6.092,6.092,0,1,1,6.092-6.092,6.092,6.092,0,0,1-6.092,6.092Z" transform="translate(0 0)"/><path class="b" d="M84.063,82.888l-4.137,4.137L77.9,85a.363.363,0,0,0-.513.513l2.281,2.281a.363.363,0,0,0,.513,0L84.576,83.4a.363.363,0,0,0-.513-.513Z" transform="translate(-61.255 -65.614)"/></g></g></svg>