<svg xmlns="http://www.w3.org/2000/svg" width="40" height="40" viewBox="0 0 40 40"><defs><style>.a{fill:rgba(19,110,227,0.22);}.b{fill:#2d75d2;}</style></defs><g transform="translate(-37 -225)"><rect class="a" width="40" height="40" rx="6" transform="translate(37 225)"/><g transform="translate(44.209 232)"><path class="b" d="M27,23.625h1.878v4.694H27Z" transform="translate(-6.346 -5.788)"/><path class="b" d="M22.5,18h1.878v9.388H22.5Z" transform="translate(-5.602 -4.857)"/><path class="b" d="M11.444,27.388A4.7,4.7,0,0,1,6.75,22.694H8.628a2.816,2.816,0,1,0,2.816-2.816V18a4.694,4.694,0,1,1,0,9.388Z" transform="translate(-2.995 -4.857)"/><path class="b" d="M26.659,2.25H4.128A1.879,1.879,0,0,0,2.25,4.128V26.659a1.879,1.879,0,0,0,1.878,1.878H26.659a1.88,1.88,0,0,0,1.878-1.878V4.128A1.879,1.879,0,0,0,26.659,2.25Zm0,8.449H13.516V4.128H26.659ZM11.638,4.128V10.7H4.128V4.128ZM4.128,26.659V12.577H26.659l0,14.082Z" transform="translate(-2.25 -2.25)"/></g></g></svg>